<svg id="Capa_1" enable-background="new 0 0 512 512" height="512" viewBox="0 0 512 512" width="512" xmlns="http://www.w3.org/2000/svg"><g><path d="m95 176c-52.383 0-95 42.617-95 95v100c0 52.383 42.617 95 95 95s95-42.617 95-95v-100c0-52.383-42.617-95-95-95zm0 260c-35.841 0-65-29.159-65-65v-28.952l118.487 65.827c-11.74 16.975-31.331 28.125-53.487 28.125zm-13.256-121.995c4.192 1.295 8.644 1.995 13.256 1.995s9.064-.7 13.256-1.995c1.128 2.125 1.744 4.516 1.744 6.995v14.507l-15 8.333-15-8.333v-14.507c0-2.479.616-4.87 1.744-6.995zm-1.744-43.005c0-8.271 6.729-15 15-15s15 6.729 15 15-6.729 15-15 15-15-6.729-15-15zm80 100c0 2.926-.213 5.801-.59 8.625l-33.524-18.625 34.114-18.952zm0-63.271-20.066 11.148c-.389-8.279-3.041-16.153-7.542-22.871 4.801-7.156 7.608-15.759 7.608-25.006 0-24.813-20.187-45-45-45s-45 20.187-45 45c0 9.247 2.807 17.85 7.609 25.007-4.502 6.718-7.154 14.592-7.542 22.871l-20.067-11.148v-36.73c0-35.841 29.159-65 65-65s65 29.159 65 65z"/><path d="m474.37 136.015c7.882-9.518 12.63-21.72 12.63-35.015 0-30.327-24.673-55-55-55s-55 24.673-55 55c0 13.296 4.75 25.497 12.635 35.013-22.469 12.969-37.635 37.232-37.635 64.987v80c0 8.284 6.716 15 15 15h5v135c0 19.299 15.701 35 35 35h50c19.299 0 35-15.701 35-35v-135h5c8.284 0 15-6.716 15-15v-80c0-27.753-15.164-52.015-37.63-64.985zm-42.37-60.015c13.785 0 25 11.215 25 25s-11.215 25-25 25-25-11.215-25-25 11.215-25 25-25zm30 355c0 2.757-2.243 5-5 5h-50c-2.757 0-5-2.243-5-5v-135h60zm20-165h-100v-65c0-24.813 20.187-45 45-45h10c24.813 0 45 20.187 45 45z"/><path d="m321 70h-60c-8.284 0-15 6.716-15 15s6.716 15 15 15h23.787l-84.394 84.394c-5.858 5.857-5.858 15.355 0 21.213 2.929 2.928 6.768 4.393 10.607 4.393s7.678-1.465 10.606-4.394l84.394-84.393v23.787c0 8.284 6.716 15 15 15s15-6.716 15-15v-60c0-8.284-6.716-15-15-15z"/></g></svg>