<?xml version="1.0" encoding="UTF-8"?>
<svg xmlns="http://www.w3.org/2000/svg" viewBox="0 0 64 64" width="512" height="512"><g id="Layer_50" data-name="Layer 50"><path d="M58,32.76V9a3.009,3.009,0,0,0-3-3H48V5a3,3,0,0,0-6,0V6H18V5a3,3,0,0,0-6,0V6H5A3.009,3.009,0,0,0,2,9V54.99a3,3,0,0,0,3.01,3L32.76,58A17.951,17.951,0,0,0,58,32.76ZM44,5a1,1,0,0,1,2,0v6a1,1,0,0,1-2,0Zm-1.82,7a2.988,2.988,0,0,0,5.64,0H49a1,1,0,0,1,1,1,.949.949,0,0,1-.31.71A.928.928,0,0,1,49,14H41a1,1,0,0,1-1-1,.949.949,0,0,1,.31-.71A.928.928,0,0,1,41,12ZM14,5a1,1,0,0,1,2,0v6a1,1,0,0,1-2,0Zm-1.82,7a2.988,2.988,0,0,0,5.64,0H19a1,1,0,0,1,1,1,.949.949,0,0,1-.31.71A.928.928,0,0,1,19,14H11a1,1,0,0,1-1-1,.949.949,0,0,1,.31-.71A.928.928,0,0,1,11,12ZM4,9A1,1,0,0,1,5,8h7v2H11a3,3,0,0,0-3,3,3.009,3.009,0,0,0,3,3h8a3,3,0,0,0,3-3,3.009,3.009,0,0,0-3-3H18V8H42v2H41a3,3,0,0,0-3,3,3.009,3.009,0,0,0,3,3h8a3,3,0,0,0,3-3,3.009,3.009,0,0,0-3-3H48V8h7a1,1,0,0,1,1,1v9H4ZM4,20H56V30.66a19.224,19.224,0,0,0-2.01-1.59c0-.03.01-.05.01-.07V23a1,1,0,0,0-1-1H47a1,1,0,0,0-1,1v3.15a16.524,16.524,0,0,0-2-.12h-.01c0-.01.01-.02.01-.03V23a1,1,0,0,0-1-1H37a1,1,0,0,0-1,1v4.93a16.779,16.779,0,0,0-2.02,1.16A.292.292,0,0,0,34,29V23a1,1,0,0,0-1-1H27a1,1,0,0,0-1,1v6a1,1,0,0,0,1,1h5.76a18.055,18.055,0,0,0-2.1,2H27a1,1,0,0,0-1,1v6a.979.979,0,0,0,.53.86A17.656,17.656,0,0,0,27.93,52H5a1,1,0,0,1-1-1Zm48,4v3.93a17.83,17.83,0,0,0-4-1.44V24Zm-9.97,2.14a17.929,17.929,0,0,0-4.03.94V24h4v2A.7.7,0,0,0,42.03,26.14ZM32,24v4H28V24ZM29.08,34A18.021,18.021,0,0,0,28,35.86V34ZM5,55.99a.888.888,0,0,1-.7-.29,1,1,0,0,1-.3-.71V53.82A3,3,0,0,0,5,54H29.08a16.934,16.934,0,0,0,1.58,2Zm39,4.04A16.03,16.03,0,1,1,60.03,44,16.047,16.047,0,0,1,44,60.03Z"/><path d="M55.92,36.32l-4.24-4.24a1.008,1.008,0,0,0-1.42,0,1,1,0,0,0,0,1.41l1.42,1.42-1.42,1.41-2.82-2.83a1.008,1.008,0,0,0-1.42,0l-2.83,2.83a.99.99,0,0,0-.29.71,1.007,1.007,0,0,0,.29.71l-3.53,3.53-3.54,3.54a2.016,2.016,0,0,0,0,2.83l-.71.7a2,2,0,0,0,0,2.83l-2.12,2.12a1.008,1.008,0,0,0,0,1.42,1.014,1.014,0,0,0,1.42,0l2.12-2.12a1.983,1.983,0,0,0,1.41.58,2.005,2.005,0,0,0,1.42-.58l.7-.71a2.016,2.016,0,0,0,2.83,0l7.07-7.07a1.007,1.007,0,0,0,.71.29.99.99,0,0,0,.71-.29l2.83-2.83a1.008,1.008,0,0,0,0-1.42l-2.83-2.82,1.41-1.42,1.42,1.42a1,1,0,1,0,1.41-1.42ZM38.24,51.17l-.7-.7v-.01h-.01l-.7-.7.71-.71,1.41,1.41Zm3.54-.71-4.24-4.24.7-.71,1.42,1.42a1,1,0,0,0,1.41-1.42L39.66,44.1l.7-.71,1.42,1.42a1,1,0,1,0,1.41-1.42l-1.41-1.41.71-.71,1.41,1.42a1,1,0,1,0,1.41-1.42L43.9,39.86l.71-.71,4.24,4.24Zm10.6-9.19-1.41,1.42-5.66-5.66,1.42-1.41Z"/><path d="M17,30h6a1,1,0,0,0,1-1V23a1,1,0,0,0-1-1H17a1,1,0,0,0-1,1v6A1,1,0,0,0,17,30Zm1-6h4v4H18Z"/><path d="M7,30h6a1,1,0,0,0,1-1V23a1,1,0,0,0-1-1H7a1,1,0,0,0-1,1v6A1,1,0,0,0,7,30Zm1-6h4v4H8Z"/><path d="M17,40h6a1,1,0,0,0,1-1V33a1,1,0,0,0-1-1H17a1,1,0,0,0-1,1v6A1,1,0,0,0,17,40Zm1-6h4v4H18Z"/><path d="M7,40h6a1,1,0,0,0,1-1V33a1,1,0,0,0-1-1H7a1,1,0,0,0-1,1v6A1,1,0,0,0,7,40Zm1-6h4v4H8Z"/><path d="M17,50h6a1,1,0,0,0,1-1V43a1,1,0,0,0-1-1H17a1,1,0,0,0-1,1v6A1,1,0,0,0,17,50Zm1-6h4v4H18Z"/><path d="M7,50h6a1,1,0,0,0,1-1V43a1,1,0,0,0-1-1H7a1,1,0,0,0-1,1v6A1,1,0,0,0,7,50Zm1-6h4v4H8Z"/></g></svg>
