<svg id="Layer_1" enable-background="new 0 0 512 512" height="512" viewBox="0 0 512 512" width="512" xmlns="http://www.w3.org/2000/svg"><path d="m178.906 12.075c-3.948 1.243-6.141 5.453-4.897 9.401s5.451 6.143 9.401 4.897c156.574-49.319 313.438 68.195 313.438 229.717 0 133.12-107.726 240.859-240.86 240.859-133.121 0-240.859-107.725-240.859-240.859 0-99.045 59.235-182.1 141.146-219.323 3.769-1.713 5.436-6.157 3.723-9.925s-6.156-5.434-9.925-3.723c-162.807 73.991-200.971 287.911-74.998 413.885 99.99 99.991 261.826 99.999 361.826 0 48.324-48.323 74.938-112.573 74.938-180.913 0-171.565-166.621-296.406-332.933-244.016z"/><path d="m432.847 367.954c2.566 0 5.064-1.318 6.463-3.688 47.376-80.311 38.336-187.509-32.826-258.671-83.058-83.057-217.933-83.059-300.992-.001-39.022 39.023-61.112 90.97-62.2 146.272-.081 4.139 3.208 7.56 7.347 7.642 4.14.091 7.56-3.207 7.642-7.347 1.012-51.41 21.543-99.697 57.812-135.967 77.199-77.198 202.592-77.198 279.791.001 37.306 37.306 57.851 86.989 57.851 139.896.001 35.468-9.451 70.241-27.336 100.559-2.966 5.024.711 11.304 6.448 11.304z"/><path d="m59.801 280.991c-.516-4.107-4.258-7.017-8.373-6.502-4.107.517-7.018 4.265-6.502 8.373 5.944 47.264 26.887 90.047 60.565 123.725 89.008 89.009 236.317 81.918 316.115-16.804 2.603-3.219 2.103-7.939-1.117-10.542-3.22-2.604-7.941-2.102-10.541 1.117-37.411 46.27-93.119 73.479-153.961 73.479-100.341 0-183.8-74.357-196.186-172.846z"/><path d="m206.125 149.807c16.563-7.048 24.303-26.257 17.256-42.819-7.048-16.564-26.258-24.303-42.819-17.255-16.563 7.048-24.303 26.257-17.256 42.819 7.049 16.562 26.254 24.302 42.819 17.255zm-12.805-47.689c6.868 0 13.412 4.032 16.266 10.74 3.811 8.956-.374 19.344-9.33 23.154-8.957 3.813-19.343-.374-23.154-9.33-4.942-11.612 3.608-24.564 16.218-24.564z"/><path d="m119.697 204.626v50.804c0 11.204 8.983 20.502 20.024 20.726 2.072.046 4.082-.183 5.991-.658v116.701c0 11.175 8.575 20.332 19.522 20.847 11.968.566 21.484-9.043 21.484-20.48v-95.218h13.253v94.851c0 18.435 21.68 27.583 34.654 15.203 4.037-3.851 6.352-9.258 6.352-14.836v-113.143l5.009 18.508c3.182 11.753 15.505 18.582 27.241 14.862v8.389c0 12.725 11.806 23.584 26.014 20.071v50.972c0 17.215 19.957 27.422 33.562 16.098 13.333 11.175 33.462 1.328 33.462-15.757v-51.304c13.952 3.405 26.015-7.027 26.015-20.04v-35.795c0-20.697-16.839-37.535-37.536-37.535h-43.983c-12.12 0-22.911 5.78-29.778 14.722l-18.224-67.726c-4.396-16.333-19.278-27.74-36.191-27.74h-69.395c-20.664 0-37.476 16.812-37.476 37.478zm168.521 80.8c0-12.431 10.113-22.544 22.543-22.544h43.983c12.431 0 22.544 10.113 22.544 22.544v35.795c0 3.068-2.529 5.7-5.527 5.7-2.857 0-5.497-1.276-5.497-4.3 0-.013-.002-.026-.002-.039v-20.369c0-4.14-3.355-7.496-7.496-7.496-4.14 0-7.496 3.356-7.496 7.496v20.655c0 .013.002.026.002.039v69.658c0 4.643-5.631 7.444-9.207 3.935-1.155-1.133-1.816-2.692-1.816-4.276v-36.621c0-4.14-3.358-7.496-7.499-7.496s-7.496 3.356-7.496 7.496v36.962c0 4.66-5.641 7.434-9.207 3.935-1.155-1.133-1.816-2.692-1.816-4.276v-69.82c0-.168-.014-.332-.025-.497.011-.165.025-.329.025-.497v-19.196c0-4.14-3.355-7.496-7.496-7.496-4.14 0-7.496 3.356-7.496 7.496v20.191c0 6.164-11.023 6.176-11.023-1.222v-35.757zm-39.934-86.644 24.715 91.847c.928 3.45-1.121 7.019-4.57 7.956-3.474.941-7.035-1.108-7.973-4.571l-19.74-72.932c-.981-3.627-4.498-5.968-8.223-5.472-3.725.495-6.508 3.672-6.508 7.43v169.525c0 3.16-2.645 5.669-5.788 5.505-2.887-.136-5.236-2.77-5.236-5.873v-102.346c0-1.988-.79-3.895-2.195-5.3-1.405-1.406-3.312-2.195-5.3-2.195h-28.245c-4.14 0-7.496 3.356-7.496 7.496v102.714c0 3.175-2.66 5.669-5.788 5.505-2.887-.136-5.236-2.77-5.236-5.873 0-17.264 0-153.565 0-170.728 0-4.14-3.356-7.496-7.496-7.496s-7.496 3.356-7.496 7.496c0 37.819.609 36.419-1.17 38.163-1.033 1.012-2.671 1.58-4.516 1.534-2.943-.06-5.337-2.633-5.337-5.737v-50.804c0-12.399 10.087-22.487 22.487-22.487h69.395c10.15 0 19.079 6.844 21.716 16.643z"/><path d="m332.798 232.157c23.334 0 39.122-23.971 29.993-45.425-7.049-16.564-26.259-24.303-42.819-17.256-16.563 7.048-24.303 26.257-17.256 42.819 5.28 12.406 17.38 19.862 30.082 19.862zm-6.956-48.886c8.96-3.813 19.346.378 23.154 9.33 3.811 8.956-.375 19.343-9.33 23.154-8.959 3.814-19.344-.376-23.154-9.33-3.812-8.955.374-19.342 9.33-23.154z"/></svg>